<?xml version="1.0" encoding="UTF-8"?>
<svg id="Layer_1" data-name="Layer 1" xmlns="http://www.w3.org/2000/svg" viewBox="0 0 275 275">
  <defs>
    <style>
      .cls-1 {
        fill: #ffce00;
      }

      .cls-2 {
        fill: #f26430;
      }

      .cls-3 {
        fill: #054959;
      }
    </style>
  </defs>
  <circle class="cls-2" cx="62.5" cy="62.63" r="25"/>
  <circle class="cls-2" cx="62.5" cy="212.63" r="25"/>
  <circle class="cls-1" cx="212.5" cy="62.63" r="25"/>
  <path class="cls-3" d="M137.5,237.63c-13.79,0-25-11.21-25-25s11.21-25,25-25c27.61,0,50-22.39,50-50s-22.39-50-50-50c-13.79,0-25-11.21-25-25s11.21-25,25-25,25,11.21,25,25c0,27.61,22.39,50,50,50,13.79,0,25,11.21,25,25s-11.21,25-25,25c-27.61,0-50,22.39-50,50,0,13.79-11.21,25-25,25Z"/>
  <circle class="cls-1" cx="137.5" cy="137.63" r="25"/>
</svg>