<?xml version="1.0" encoding="UTF-8"?>
<svg id="Layer_1" data-name="Layer 1" xmlns="http://www.w3.org/2000/svg" viewBox="0 0 275 275">
  <defs>
    <style>
      .cls-1 {
        fill: #ffce00;
      }

      .cls-2 {
        fill: #f26430;
      }

      .cls-3 {
        fill: #054959;
      }

      .cls-4 {
        fill: #7f7f7f;
      }
    </style>
  </defs>
  <path class="cls-2" d="M57.61,47.65v27.45h12.65v2.52h-15.71v-29.97h3.06Z"/>
  <path class="cls-3" d="M138.93,77.62h-3.06v-29.97h3.06v29.97Z"/>
  <path class="cls-1" d="M220.77,47.38h3.06v19.58c0,1.5-.24,2.91-.72,4.23-.48,1.32-1.2,2.48-2.16,3.46-.96.99-2.15,1.78-3.58,2.36s-3.08.88-4.97.88-3.55-.29-4.97-.88c-1.42-.58-2.62-1.37-3.58-2.36-.96-.99-1.68-2.14-2.16-3.46-.48-1.32-.72-2.73-.72-4.23v-19.58h3.06v19.76c0,2.46.71,4.45,2.14,5.96,1.42,1.52,3.5,2.27,6.23,2.27s4.81-.76,6.23-2.27c1.43-1.51,2.14-3.5,2.14-5.96v-19.76Z"/>
  <path class="cls-4" d="M70.95,152.62v-13.86h-17.1v13.86h-3.06v-29.97h3.06v13.46h17.1v-13.46h3.06v29.97h-3.06Z"/>
  <path class="cls-1" d="M145.77,122.38h3.06v19.58c0,1.5-.24,2.91-.72,4.23-.48,1.32-1.2,2.48-2.16,3.46-.96.99-2.15,1.78-3.58,2.36s-3.08.88-4.97.88-3.55-.29-4.97-.88-2.62-1.37-3.58-2.36c-.96-.99-1.68-2.14-2.16-3.46-.48-1.32-.72-2.73-.72-4.23v-19.58h3.06v19.76c0,2.46.71,4.45,2.14,5.96,1.42,1.52,3.5,2.27,6.23,2.27s4.81-.76,6.23-2.27c1.42-1.51,2.14-3.5,2.14-5.96v-19.76Z"/>
  <path class="cls-3" d="M213.93,152.62h-3.06v-29.97h3.06v29.97Z"/>
  <path class="cls-2" d="M57.61,197.65v27.45h12.65v2.52h-15.71v-29.97h3.06Z"/>
  <path class="cls-3" d="M138.93,227.62h-3.06v-29.97h3.06v29.97Z"/>
  <path class="cls-4" d="M221.29,227.62l-17.78-25.06v25.06h-2.92v-29.97h2.92l17.78,25.07v-25.07h2.92v29.97h-2.92Z"/>
</svg>