<svg xmlns="http://www.w3.org/2000/svg" width="300" height="300" viewBox="0 0 300 300" data-app="Xyris">
    <defs>
    </defs>
    <g transform="">
        <path d="M 70.11 60.15000106811524 L 70.11 87.60000106811523 L 82.76 87.60000106811523 L 82.76 90.12000106811523 L 67.05 90.12000106811523 L 67.05 60.15000106811524 L 70.11 60.15000106811524 Z" transform="">
        </path>
        <path d="M 151.43 90.12000106811523 L 148.37 90.12000106811523 L 148.37 60.15000106811524 L 151.43 60.15000106811524 L 151.43 90.12000106811523 Z" transform="">
        </path>
        <path d="M 233.27 59.88000130004924 L 236.33 59.88000130004924 L 236.33 79.46000106811523 C 236.33 80.96000106811523 236.09 82.37000106811523 235.61 83.69000106811524 C 235.13 85.01000106811523 234.41 86.17000106811523 233.45 87.15000106811523 C 232.49 88.14000106811524 231.3 88.93000106811523 229.87 89.51000106811523 C 228.44 90.09000106811524 226.79 90.39000106811524 224.9 90.39000106811524 C 223.01 90.39000106811524 221.35 90.10000106811523 219.93 89.51000106811523 C 218.51 88.93000106811523 217.31 88.14000106811524 216.35 87.15000106811523 C 215.39 86.16000106811524 214.67 85.01000106811523 214.19 83.69000106811524 C 213.71 82.37000106811523 213.47 80.96000106811523 213.47 79.46000106811523 L 213.47 59.88000130004924 L 216.53 59.88000130004924 L 216.53 79.64000106811524 C 216.53 82.10000106811523 217.24 84.09000106811524 218.67 85.60000106811523 C 220.09 87.12000106811523 222.17 87.87000106811523 224.9 87.87000106811523 C 227.63 87.87000106811523 229.71 87.11000106811524 231.13 85.60000106811523 C 232.56 84.09000106811524 233.27 82.10000106811523 233.27 79.64000106811524 L 233.27 59.88000130004924 Z" transform="">
        </path>
        <path d="M 83.45 165.12000106811524 L 83.45 151.26030106811524 L 66.35 151.26030106811524 L 66.35 165.12000106811524 L 63.29 165.12000106811524 L 63.29 135.15030106811525 L 66.35 135.15030106811525 L 66.35 148.61030106811523 L 83.45 148.61030106811523 L 83.45 135.15030106811525 L 86.51 135.15030106811525 L 86.51 165.12000106811524 L 83.45 165.12000106811524 Z" transform="">
        </path>
        <path d="M 158.27 134.88030106811522 L 161.33 134.88030106811522 L 161.33 154.46030106811523 C 161.33 155.96030106811523 161.09 157.37030106811523 160.61 158.69030106811522 C 160.13 160.01000106811523 159.41 161.17000106811525 158.45 162.15000106811522 C 157.49 163.14000106811523 156.3 163.93000106811525 154.87 164.51000106811523 C 153.44 165.0900010681152 151.79 165.39000106811523 149.9 165.39000106811523 C 148.01 165.39000106811523 146.35 165.10000106811523 144.93 164.51000106811523 C 143.51 163.92000106811525 142.31 163.14000106811523 141.35 162.15000106811522 C 140.39 161.16000106811524 139.67 160.01000106811523 139.19 158.69030106811522 C 138.71 157.37030106811523 138.47 155.96030106811523 138.47 154.46030106811523 L 138.47 134.88030106811522 L 141.53 134.88030106811522 L 141.53 154.64030106811524 C 141.53 157.10030106811524 142.24 159.09030106811525 143.67 160.60000106811523 C 145.09 162.12000106811524 147.17 162.87000106811524 149.9 162.87000106811524 C 152.63 162.87000106811524 154.71 162.11000106811525 156.13 160.60000106811523 C 157.55 159.09030106811525 158.27 157.10030106811524 158.27 154.64030106811524 L 158.27 134.88030106811522 Z" transform="">
        </path>
        <path d="M 226.43 165.12000106811524 L 223.37 165.12000106811524 L 223.37 135.15030106811525 L 226.43 135.15030106811525 L 226.43 165.12000106811524 Z" transform="">
        </path>
        <path d="M 70.11 210.15000106811524 L 70.11 237.60000106811523 L 82.76 237.60000106811523 L 82.76 240.12000106811524 L 67.05 240.12000106811524 L 67.05 210.15000106811524 L 70.11 210.15000106811524 Z" transform="">
        </path>
        <path d="M 151.43 240.12000106811524 L 148.37 240.12000106811524 L 148.37 210.15000106811524 L 151.43 210.15000106811524 L 151.43 240.12000106811524 Z" transform="">
        </path>
        <path d="M 233.79 240.12000106811524 L 216.01 215.06000106811524 L 216.01 240.12000106811524 L 213.09 240.12000106811524 L 213.09 210.15000106811524 L 216.01 210.15000106811524 L 233.79 235.22000106811524 L 233.79 210.15000106811524 L 236.71 210.15000106811524 L 236.71 240.12000106811524 L 233.79 240.12000106811524 Z" transform="">
        </path>
        <animate attributeName="opacity" keyTimes="0; 0.6704559472161638; 1" values="1; 1; 0" begin="-0.00001" dur="0.598670095722463" fill="freeze" calcMode="spline" keySplines="0 0 1 1; 0 0 0.58 1">
        </animate>
    </g>
    <g transform="">
        <path d="M 70.11 60.15000249633789 L 70.11 87.6000024963379 L 82.76 87.6000024963379 L 82.76 90.12000249633789 L 67.05 90.12000249633789 L 67.05 60.15000249633789 L 70.11 60.15000249633789 Z" fill="#f26430" transform="">
        </path>
        <path d="M 151.43 90.12000249633789 L 148.37 90.12000249633789 L 148.37 60.15000249633789 L 151.43 60.15000249633789 L 151.43 90.12000249633789 Z" fill="#054959" transform="">
        </path>
        <path d="M 233.27 59.88000249633789 L 236.33 59.88000249633789 L 236.33 79.46000249633789 C 236.33 80.96000249633789 236.09 82.37000249633789 235.61 83.6900024963379 C 235.13 85.01000249633789 234.41 86.17000249633789 233.45 87.15000249633789 C 232.49 88.14000249633789 231.3 88.93000249633789 229.87 89.51000249633789 C 228.44 90.09000249633789 226.79 90.39000249633789 224.9 90.39000249633789 C 223.01 90.39000249633789 221.35 90.1000024963379 219.93 89.51000249633789 C 218.51 88.93000249633789 217.31 88.14000249633789 216.35 87.15000249633789 C 215.39 86.1600024963379 214.67 85.01000249633789 214.19 83.6900024963379 C 213.71 82.37000249633789 213.47 80.96000249633789 213.47 79.46000249633789 L 213.47 59.88000249633789 L 216.53 59.88000249633789 L 216.53 79.64000249633789 C 216.53 82.1000024963379 217.24 84.09000249633789 218.67 85.6000024963379 C 220.09 87.12000249633789 222.17 87.87000249633789 224.9 87.87000249633789 C 227.63 87.87000249633789 229.71 87.11000249633788 231.13 85.6000024963379 C 232.56 84.09000249633789 233.27 82.1000024963379 233.27 79.64000249633789 L 233.27 59.88000249633789 Z" fill="#ffce00" transform="">
        </path>
        <path d="M 83.45 165.1199024963379 L 83.45 151.2599024963379 L 66.35 151.2599024963379 L 66.35 165.1199024963379 L 63.29 165.1199024963379 L 63.29 135.1499024963379 L 66.35 135.1499024963379 L 66.35 148.6099024963379 L 83.45 148.6099024963379 L 83.45 135.1499024963379 L 86.51 135.1499024963379 L 86.51 165.1199024963379 L 83.45 165.1199024963379 Z" fill="#7f7f7f" transform="">
        </path>
        <path d="M 158.27 134.87990249633788 L 161.33 134.87990249633788 L 161.33 154.4599024963379 C 161.33 155.9599024963379 161.09 157.3699024963379 160.61 158.68990249633788 C 160.13 160.0099024963379 159.41 161.1699024963379 158.45 162.1499024963379 C 157.49 163.1399024963379 156.3 163.9299024963379 154.87 164.5099024963379 C 153.44 165.08990249633788 151.79 165.3899024963379 149.9 165.3899024963379 C 148.01 165.3899024963379 146.35 165.0999024963379 144.93 164.5099024963379 C 143.51 163.9199024963379 142.31 163.1399024963379 141.35 162.1499024963379 C 140.39 161.15990249633788 139.67 160.0099024963379 139.19 158.68990249633788 C 138.71 157.3699024963379 138.47 155.9599024963379 138.47 154.4599024963379 L 138.47 134.87990249633788 L 141.53 134.87990249633788 L 141.53 154.6399024963379 C 141.53 157.0999024963379 142.24 159.08990249633788 143.67 160.5999024963379 C 145.09 162.1199024963379 147.17 162.8699024963379 149.9 162.8699024963379 C 152.63 162.8699024963379 154.71 162.1099024963379 156.13 160.5999024963379 C 157.55 159.08990249633788 158.27 157.0999024963379 158.27 154.6399024963379 L 158.27 134.87990249633788 Z" fill="#ffce00" transform="">
        </path>
        <path d="M 226.43 165.1199024963379 L 223.37 165.1199024963379 L 223.37 135.1499024963379 L 226.43 135.1499024963379 L 226.43 165.1199024963379 Z" fill="#054959" transform="">
        </path>
        <path d="M 70.11 210.1499024963379 L 70.11 237.5999024963379 L 82.76 237.5999024963379 L 82.76 240.1199024963379 L 67.05 240.1199024963379 L 67.05 210.1499024963379 L 70.11 210.1499024963379 Z" fill="#f26430" transform="">
        </path>
        <path d="M 151.43 240.1199024963379 L 148.37 240.1199024963379 L 148.37 210.1499024963379 L 151.43 210.1499024963379 L 151.43 240.1199024963379 Z" fill="#054959" transform="">
        </path>
        <path d="M 233.79 240.1199024963379 L 216.01 215.05990249633788 L 216.01 240.1199024963379 L 213.09 240.1199024963379 L 213.09 210.1499024963379 L 216.01 210.1499024963379 L 233.79 235.21990249633788 L 233.79 210.1499024963379 L 236.71 210.1499024963379 L 236.71 240.1199024963379 L 233.79 240.1199024963379 Z" fill="#7f7f7f" transform="">
        </path>
        <animate attributeName="opacity" keyTimes="0; 0.2110602298688303; 0.31480104061301095; 0.8411928521444615; 1" values="0; 0; 1; 1; 0" begin="-0.00001" dur="1.9016976264675418" fill="freeze" calcMode="spline" keySplines="0 0 1 1;0.42 0 1 1;0 0 1 1;0 0 0.58 1">
        </animate>
    </g>
    <g>
        <circle cx="75" cy="74.99999893188476" r="25" fill="#f26430">
        </circle>
        <circle cx="75" cy="224.99999893188476" r="25" fill="#f26430">
        </circle>
        <circle cx="225" cy="74.99999893188476" r="25" fill="#ffce00">
        </circle>
        <path d="M 150 249.99999893188476 C 136.21 249.99999893188476 125 238.78999893188475 125 224.99999893188476 S 136.21 199.99999893188476 150 199.99999893188476 C 177.61 199.99999893188476 200 177.60999893188477 200 149.99999893188476 S 177.61 99.99999893188476 150 99.99999893188476 C 136.21 99.99999893188476 125 88.78999893188477 125 74.99999893188476 S 136.21 49.99999893188477 150 49.99999893188477 S 175 61.20999893188477 175 74.99999893188476 C 175 102.60999893188476 197.39 124.99999893188476 225 124.99999893188476 C 238.79 124.99999893188476 250 136.20999893188477 250 149.99999893188476 S 238.79 174.99999893188476 225 174.99999893188476 C 197.39 174.99999893188476 175 197.38999893188478 175 224.99999893188476 C 175 238.78999893188475 163.79 249.99999893188476 150 249.99999893188476 Z" fill="#054959">
        </path>
        <circle cx="150" cy="149.99999893188476" r="25" fill="#ffce00">
        </circle>
        <animate attributeName="opacity" keyTimes="0; 0.5; 0.6006666666666668; 1" values="0; 0; 1; 1" begin="-0.00001" dur="3.00002" fill="freeze" calcMode="spline" keySplines="0 0 1 1;0.42 0 0.58 1;0 0 1 1">
        </animate>
    </g>
</svg>
